<svg width="61" height="61" viewBox="0 0 61 61" fill="none" xmlns="http://www.w3.org/2000/svg">
<g clip-path="url(#clip0_492_211)">
<path d="M48 5.5H13C10.225 5.5 8 7.75 8 10.5V45.5C8 48.25 10.225 50.5 13 50.5H23L30.5 58L38 50.5H48C50.75 50.5 53 48.25 53 45.5V10.5C53 7.75 50.75 5.5 48 5.5ZM48 45.5H35.925L34.45 46.975L30.5 50.925L26.525 46.95L25.075 45.5H13V10.5H48V45.5ZM28 38H33V43H28V38ZM30.5 18C33.25 18 35.5 20.25 35.5 23C35.5 28 28 27.375 28 35.5H33C33 29.875 40.5 29.25 40.5 23C40.5 17.475 36.025 13 30.5 13C24.975 13 20.5 17.475 20.5 23H25.5C25.5 20.25 27.75 18 30.5 18Z" fill="#2457C5"/>
</g>
<defs>
<clipPath id="clip0_492_211">
<rect width="60" height="60" fill="white" transform="translate(0.5 0.5)"/>
</clipPath>
</defs>
</svg>
