<svg width="45" height="44" viewBox="0 0 45 44" fill="none" xmlns="http://www.w3.org/2000/svg">
<path d="M15.4583 27.5C20.3943 27.5 24.3958 23.4985 24.3958 18.5625C24.3958 13.6265 20.3943 9.625 15.4583 9.625C10.5222 9.625 6.52075 13.6265 6.52075 18.5625C6.52075 23.4985 10.5222 27.5 15.4583 27.5Z" stroke="white" stroke-width="3" stroke-miterlimit="10"/>
<path d="M27.0427 9.95156C27.8328 9.73728 28.6476 9.62749 29.4662 9.625C31.8365 9.625 34.1098 10.5666 35.7859 12.2427C37.462 13.9188 38.4037 16.1921 38.4037 18.5625C38.4037 20.9329 37.462 23.2062 35.7859 24.8823C34.1098 26.5584 31.8365 27.5 29.4662 27.5" stroke="white" stroke-width="3" stroke-linecap="round" stroke-linejoin="round"/>
<path d="M3.08325 33.9281C4.47879 31.9422 6.33175 30.3214 8.48564 29.2025C10.6395 28.0835 13.0311 27.4994 15.4583 27.4994C17.8854 27.4994 20.277 28.0835 22.4309 29.2025C24.5848 30.3214 26.4377 31.9422 27.8333 33.9281" stroke="white" stroke-width="3" stroke-linecap="round" stroke-linejoin="round"/>
<path d="M29.4661 27.5C31.8935 27.4985 34.2855 28.0819 36.4396 29.2009C38.5937 30.3198 40.4465 31.9413 41.8411 33.9281" stroke="white" stroke-width="3" stroke-linecap="round" stroke-linejoin="round"/>
</svg>
