<svg width="59" height="60" viewBox="0 0 59 60" fill="none" xmlns="http://www.w3.org/2000/svg">
<path d="M10.3857 10.8855C5.49112 15.7825 2.4585 22.5439 2.4585 30C2.4585 37.4561 5.49112 44.2175 10.3857 49.1145L13.8619 45.6383C9.85481 41.6312 7.37516 36.0991 7.37516 30C7.37516 23.9009 9.85481 18.3688 13.8619 14.3617L10.3857 10.8855ZM48.6147 10.8855L45.1384 14.3617C49.1455 18.3688 51.6252 23.9009 51.6252 30C51.6252 36.0991 49.1455 41.6312 45.1384 45.6383L48.6147 49.1145C53.5092 44.2175 56.5418 37.4561 56.5418 30C56.5418 22.5439 53.5092 15.7825 48.6147 10.8855ZM17.3381 17.838C14.221 20.9527 12.2918 25.2554 12.2918 30C12.2918 34.7446 14.221 39.0473 17.3381 42.162L20.8144 38.6858C18.5871 36.461 17.2085 33.3876 17.2085 30C17.2085 26.6124 18.5896 23.5415 20.8144 21.3142L17.3381 17.838ZM41.6622 17.838L38.186 21.3142C40.4132 23.539 41.7918 26.6124 41.7918 30C41.7918 33.3876 40.4107 36.4585 38.186 38.6858L41.6622 42.162C44.7769 39.0449 46.7085 34.7446 46.7085 30C46.7085 25.2554 44.7794 20.9527 41.6622 17.838ZM29.5002 22.625C27.5442 22.625 25.6683 23.402 24.2852 24.7851C22.9022 26.1682 22.1252 28.044 22.1252 30C22.1252 31.956 22.9022 33.8318 24.2852 35.2149C25.6683 36.598 27.5442 37.375 29.5002 37.375C31.4561 37.375 33.332 36.598 34.7151 35.2149C36.0982 33.8318 36.8752 31.956 36.8752 30C36.8752 28.044 36.0982 26.1682 34.7151 24.7851C33.332 23.402 31.4561 22.625 29.5002 22.625Z" fill="#2457C5"/>
</svg>
