<svg width="61" height="61" viewBox="0 0 61 61" fill="none" xmlns="http://www.w3.org/2000/svg">
<g clip-path="url(#clip0_492_183)">
<path d="M25.5 41.75L40.5 30.5L25.5 19.25V41.75ZM30.5 5.5C16.7 5.5 5.5 16.7 5.5 30.5C5.5 44.3 16.7 55.5 30.5 55.5C44.3 55.5 55.5 44.3 55.5 30.5C55.5 16.7 44.3 5.5 30.5 5.5ZM30.5 50.5C19.475 50.5 10.5 41.525 10.5 30.5C10.5 19.475 19.475 10.5 30.5 10.5C41.525 10.5 50.5 19.475 50.5 30.5C50.5 41.525 41.525 50.5 30.5 50.5Z" fill="#2457C5"/>
</g>
<defs>
<clipPath id="clip0_492_183">
<rect width="60" height="60" fill="white" transform="translate(0.5 0.5)"/>
</clipPath>
</defs>
</svg>
