<svg width="45" height="44" viewBox="0 0 45 44" fill="none" xmlns="http://www.w3.org/2000/svg">
<path d="M4.2915 10.3125H26.2915C27.7502 10.3125 29.1491 10.892 30.1806 11.9234C31.212 12.9549 31.7915 14.3538 31.7915 15.8125V32.3125C31.7915 32.6772 31.6466 33.0269 31.3888 33.2848C31.1309 33.5426 30.7812 33.6875 30.4165 33.6875H8.4165C6.95781 33.6875 5.55887 33.108 4.52742 32.0766C3.49597 31.0451 2.9165 29.6462 2.9165 28.1875V11.6875C2.9165 11.3228 3.06137 10.9731 3.31923 10.7152C3.57709 10.4574 3.92683 10.3125 4.2915 10.3125V10.3125Z" stroke="white" stroke-width="3" stroke-linecap="round" stroke-linejoin="round"/>
<path d="M31.7915 19.25L41.4165 13.75V30.25L31.7915 24.75" stroke="white" stroke-width="3" stroke-linecap="round" stroke-linejoin="round"/>
</svg>
