<svg width="61" height="61" viewBox="0 0 61 61" fill="none" xmlns="http://www.w3.org/2000/svg">
<g clip-path="url(#clip0_493_139)">
<path d="M30.475 5.5C16.675 5.5 5.5 16.7 5.5 30.5C5.5 44.3 16.675 55.5 30.475 55.5C44.3 55.5 55.5 44.3 55.5 30.5C55.5 16.7 44.3 5.5 30.475 5.5ZM30.5 50.5C19.45 50.5 10.5 41.55 10.5 30.5C10.5 19.45 19.45 10.5 30.5 10.5C41.55 10.5 50.5 19.45 50.5 30.5C50.5 41.55 41.55 50.5 30.5 50.5ZM31.75 18H28V33L41.125 40.875L43 37.8L31.75 31.125V18Z" fill="#2457C5"/>
</g>
<defs>
<clipPath id="clip0_493_139">
<rect width="60" height="60" fill="white" transform="translate(0.5 0.5)"/>
</clipPath>
</defs>
</svg>
