<svg width="37" height="36" viewBox="0 0 37 36" fill="none" xmlns="http://www.w3.org/2000/svg">
<path d="M36.4968 30.7597L29.2914 23.945C28.9662 23.6374 28.5253 23.4665 28.0628 23.4665H26.8848C28.8795 21.0537 30.0647 18.0188 30.0647 14.7174C30.0647 6.86363 23.3363 0.5 15.0323 0.5C6.72842 0.5 0 6.86363 0 14.7174C0 22.5711 6.72842 28.9347 15.0323 28.9347C18.523 28.9347 21.7319 27.8137 24.283 25.9272V27.0414C24.283 27.4788 24.4637 27.8958 24.7889 28.2033L31.9943 35.0181C32.6737 35.6606 33.7722 35.6606 34.4443 35.0181L36.4896 33.0837C37.1689 32.4412 37.1689 31.4023 36.4968 30.7597ZM15.0323 23.4665C9.9228 23.4665 5.78167 19.5567 5.78167 14.7174C5.78167 9.88482 9.91557 5.96822 15.0323 5.96822C20.1419 5.96822 24.283 9.87799 24.283 14.7174C24.283 19.5499 20.1491 23.4665 15.0323 23.4665Z" fill="#202020"/>
</svg>
