<svg width="51" height="49" viewBox="0 0 51 49" fill="none" xmlns="http://www.w3.org/2000/svg">
<path d="M7.54134 0.125C4.55405 0.125 2.12467 2.55437 2.12467 5.54167V32.625C2.12467 28.6329 4.31842 25.1788 7.54134 23.2992V10.9583H45.4633L45.458 43.4583H34.6247C34.6247 45.4408 34.0488 47.2744 33.1171 48.875H45.458C48.4453 48.875 50.8747 46.4456 50.8747 43.4583V5.54167C50.8747 2.55437 48.4453 0.125 45.458 0.125H7.54134ZM34.6247 24.5C31.632 24.5 29.208 26.924 29.208 29.9167C29.208 30.6103 29.3462 31.2697 29.5836 31.8792L24.6007 38.1104C24.333 38.0673 24.0625 38.0443 23.7913 38.0417C23.318 38.0419 22.8467 38.1041 22.3896 38.2268L18.1842 34.0215C18.3083 33.5663 18.3723 33.0968 18.3747 32.625C18.3747 31.1884 17.804 29.8107 16.7882 28.7948C15.7723 27.779 14.3946 27.2083 12.958 27.2083C11.5214 27.2083 10.1437 27.779 9.12785 28.7948C8.11202 29.8107 7.54134 31.1884 7.54134 32.625C7.54309 33.2986 7.67046 33.9659 7.91691 34.5928L0.00878906 44.474L4.24056 47.8594L12.1487 37.9729C12.4164 38.016 12.6869 38.039 12.958 38.0417C13.4313 38.0415 13.9026 37.9792 14.3598 37.8565L18.5651 42.0618C18.4411 42.5171 18.3771 42.9865 18.3747 43.4583C18.3747 44.8949 18.9454 46.2727 19.9612 47.2885C20.977 48.3043 22.3548 48.875 23.7913 48.875C25.2279 48.875 26.6057 48.3043 27.6215 47.2885C28.6373 46.2727 29.208 44.8949 29.208 43.4583C29.2063 42.7848 29.0789 42.1174 28.8324 41.4906L33.8259 35.254C34.0891 35.2932 34.3505 35.3333 34.6247 35.3333C37.6174 35.3333 40.0413 32.9094 40.0413 29.9167C40.0413 26.924 37.6174 24.5 34.6247 24.5Z" fill="#5AAEFF"/>
</svg>
