<svg width="37" height="35" viewBox="0 0 37 35" fill="none" xmlns="http://www.w3.org/2000/svg">
<path d="M36.4968 30.2597L29.2914 23.445C28.9662 23.1374 28.5253 22.9665 28.0628 22.9665H26.8848C28.8795 20.5537 30.0647 17.5188 30.0647 14.2174C30.0647 6.36363 23.3363 0 15.0323 0C6.72842 0 0 6.36363 0 14.2174C0 22.0711 6.72842 28.4347 15.0323 28.4347C18.523 28.4347 21.7319 27.3137 24.283 25.4272V26.5414C24.283 26.9788 24.4637 27.3958 24.7889 27.7033L31.9943 34.5181C32.6737 35.1606 33.7722 35.1606 34.4443 34.5181L36.4896 32.5837C37.1689 31.9412 37.1689 30.9023 36.4968 30.2597ZM15.0323 22.9665C9.9228 22.9665 5.78167 19.0567 5.78167 14.2174C5.78167 9.38482 9.91557 5.46822 15.0323 5.46822C20.1419 5.46822 24.283 9.37799 24.283 14.2174C24.283 19.0499 20.1491 22.9665 15.0323 22.9665Z" fill="#9C9C9C"/>
</svg>
